<svg xmlns="http://www.w3.org/2000/svg" version="1.1" xmlns:xlink="http://www.w3.org/1999/xlink" xmlns:svgjs="http://svgjs.com/svgjs" width="1440" height="560" preserveAspectRatio="none" viewBox="0 0 1440 560"><g mask="url(&quot;#SvgjsMask1000&quot;)" fill="none"><rect width="1440" height="560" x="0" y="0" fill="#0e2a47"></rect><path d="M86.6 63.37L151.56 100.87L151.56 175.87L86.6 213.37L21.65 175.87L21.65 100.87zM21.65 175.87L86.6 213.37L86.6 288.37L21.65 325.87L-43.3 288.37L-43.3 213.37zM151.56 -49.13L216.51 -11.63L216.51 63.37L151.56 100.87L86.6 63.37L86.6 -11.63zM216.51 288.37L281.46 325.87L281.46 400.87L216.51 438.37L151.56 400.87L151.56 325.87zM346.42 63.37L411.37 100.87L411.37 175.87L346.42 213.37L281.46 175.87L281.46 100.87zM346.42 288.37L411.37 325.87L411.37 400.87L346.42 438.37L281.46 400.87L281.46 325.87zM281.46 400.87L346.42 438.37L346.42 513.37L281.46 550.87L216.51 513.37L216.51 438.37zM411.37 -49.13L476.33 -11.63L476.33 63.37L411.37 100.87L346.42 63.37L346.42 -11.63zM476.33 63.37L541.28 100.87L541.28 175.87L476.33 213.37L411.37 175.87L411.37 100.87zM411.37 175.87L476.33 213.37L476.33 288.37L411.37 325.87L346.42 288.37L346.42 213.37zM476.33 288.37L541.28 325.87L541.28 400.87L476.33 438.37L411.37 400.87L411.37 325.87zM411.37 400.87L476.33 438.37L476.33 513.37L411.37 550.87L346.42 513.37L346.42 438.37zM476.33 513.37L541.28 550.87L541.28 625.87L476.33 663.37L411.37 625.87L411.37 550.87zM541.28 -49.13L606.23 -11.63L606.23 63.37L541.28 100.87L476.33 63.37L476.33 -11.63zM606.23 63.37L671.19 100.87L671.19 175.87L606.23 213.37L541.28 175.87L541.28 100.87zM606.23 513.37L671.19 550.87L671.19 625.87L606.23 663.37L541.28 625.87L541.28 550.87zM671.19 -49.13L736.14 -11.63L736.14 63.37L671.19 100.87L606.23 63.37L606.23 -11.63zM736.14 63.37L801.1 100.87L801.1 175.87L736.14 213.37L671.19 175.87L671.19 100.87zM671.19 175.87L736.14 213.37L736.14 288.37L671.19 325.87L606.23 288.37L606.23 213.37zM736.14 288.37L801.1 325.87L801.1 400.87L736.14 438.37L671.19 400.87L671.19 325.87zM866.05 63.37L931 100.87L931 175.87L866.05 213.37L801.09 175.87L801.09 100.87zM866.05 288.37L931 325.87L931 400.87L866.05 438.37L801.09 400.87L801.09 325.87zM931 -49.13L995.96 -11.63L995.96 63.37L931 100.87L866.05 63.37L866.05 -11.63zM995.96 63.37L1060.91 100.87L1060.91 175.87L995.96 213.37L931 175.87L931 100.87zM1060.91 -49.13L1125.86 -11.63L1125.86 63.37L1060.91 100.87L995.96 63.37L995.96 -11.63zM1125.86 63.37L1190.82 100.87L1190.82 175.87L1125.86 213.37L1060.91 175.87L1060.91 100.87zM1060.91 175.87L1125.86 213.37L1125.86 288.37L1060.91 325.87L995.96 288.37L995.96 213.37zM1125.86 288.37L1190.82 325.87L1190.82 400.87L1125.86 438.37L1060.91 400.87L1060.91 325.87zM1060.91 400.87L1125.86 438.37L1125.86 513.37L1060.91 550.87L995.96 513.37L995.96 438.37zM1190.82 175.87L1255.77 213.37L1255.77 288.37L1190.82 325.87L1125.86 288.37L1125.86 213.37zM1320.73 400.87L1385.68 438.37L1385.68 513.37L1320.73 550.87L1255.77 513.37L1255.77 438.37zM1515.59 63.37L1580.54 100.87L1580.54 175.87L1515.59 213.37L1450.63 175.87L1450.63 100.87zM1450.63 175.87L1515.59 213.37L1515.59 288.37L1450.63 325.87L1385.68 288.37L1385.68 213.37z" stroke="#03305d" stroke-width="2"></path><path d="M79.1 63.37 a7.5 7.5 0 1 0 15 0 a7.5 7.5 0 1 0 -15 0zM144.06 100.87 a7.5 7.5 0 1 0 15 0 a7.5 7.5 0 1 0 -15 0zM144.06 175.87 a7.5 7.5 0 1 0 15 0 a7.5 7.5 0 1 0 -15 0zM79.1 213.37 a7.5 7.5 0 1 0 15 0 a7.5 7.5 0 1 0 -15 0zM14.15 175.87 a7.5 7.5 0 1 0 15 0 a7.5 7.5 0 1 0 -15 0zM14.15 100.87 a7.5 7.5 0 1 0 15 0 a7.5 7.5 0 1 0 -15 0zM79.1 288.37 a7.5 7.5 0 1 0 15 0 a7.5 7.5 0 1 0 -15 0zM14.15 325.87 a7.5 7.5 0 1 0 15 0 a7.5 7.5 0 1 0 -15 0zM-50.8 288.37 a7.5 7.5 0 1 0 15 0 a7.5 7.5 0 1 0 -15 0zM-50.8 213.37 a7.5 7.5 0 1 0 15 0 a7.5 7.5 0 1 0 -15 0zM144.06 -49.13 a7.5 7.5 0 1 0 15 0 a7.5 7.5 0 1 0 -15 0zM209.01 -11.63 a7.5 7.5 0 1 0 15 0 a7.5 7.5 0 1 0 -15 0zM209.01 63.37 a7.5 7.5 0 1 0 15 0 a7.5 7.5 0 1 0 -15 0zM79.1 -11.63 a7.5 7.5 0 1 0 15 0 a7.5 7.5 0 1 0 -15 0zM209.01 288.37 a7.5 7.5 0 1 0 15 0 a7.5 7.5 0 1 0 -15 0zM273.96 325.87 a7.5 7.5 0 1 0 15 0 a7.5 7.5 0 1 0 -15 0zM273.96 400.87 a7.5 7.5 0 1 0 15 0 a7.5 7.5 0 1 0 -15 0zM209.01 438.37 a7.5 7.5 0 1 0 15 0 a7.5 7.5 0 1 0 -15 0zM144.06 400.87 a7.5 7.5 0 1 0 15 0 a7.5 7.5 0 1 0 -15 0zM144.06 325.87 a7.5 7.5 0 1 0 15 0 a7.5 7.5 0 1 0 -15 0zM338.92 63.37 a7.5 7.5 0 1 0 15 0 a7.5 7.5 0 1 0 -15 0zM403.87 100.87 a7.5 7.5 0 1 0 15 0 a7.5 7.5 0 1 0 -15 0zM403.87 175.87 a7.5 7.5 0 1 0 15 0 a7.5 7.5 0 1 0 -15 0zM338.92 213.37 a7.5 7.5 0 1 0 15 0 a7.5 7.5 0 1 0 -15 0zM273.96 175.87 a7.5 7.5 0 1 0 15 0 a7.5 7.5 0 1 0 -15 0zM273.96 100.87 a7.5 7.5 0 1 0 15 0 a7.5 7.5 0 1 0 -15 0zM338.92 288.37 a7.5 7.5 0 1 0 15 0 a7.5 7.5 0 1 0 -15 0zM403.87 325.87 a7.5 7.5 0 1 0 15 0 a7.5 7.5 0 1 0 -15 0zM403.87 400.87 a7.5 7.5 0 1 0 15 0 a7.5 7.5 0 1 0 -15 0zM338.92 438.37 a7.5 7.5 0 1 0 15 0 a7.5 7.5 0 1 0 -15 0zM338.92 513.37 a7.5 7.5 0 1 0 15 0 a7.5 7.5 0 1 0 -15 0zM273.96 550.87 a7.5 7.5 0 1 0 15 0 a7.5 7.5 0 1 0 -15 0zM209.01 513.37 a7.5 7.5 0 1 0 15 0 a7.5 7.5 0 1 0 -15 0zM403.87 -49.13 a7.5 7.5 0 1 0 15 0 a7.5 7.5 0 1 0 -15 0zM468.83 -11.63 a7.5 7.5 0 1 0 15 0 a7.5 7.5 0 1 0 -15 0zM468.83 63.37 a7.5 7.5 0 1 0 15 0 a7.5 7.5 0 1 0 -15 0zM338.92 -11.63 a7.5 7.5 0 1 0 15 0 a7.5 7.5 0 1 0 -15 0zM533.78 100.87 a7.5 7.5 0 1 0 15 0 a7.5 7.5 0 1 0 -15 0zM533.78 175.87 a7.5 7.5 0 1 0 15 0 a7.5 7.5 0 1 0 -15 0zM468.83 213.37 a7.5 7.5 0 1 0 15 0 a7.5 7.5 0 1 0 -15 0zM468.83 288.37 a7.5 7.5 0 1 0 15 0 a7.5 7.5 0 1 0 -15 0zM533.78 325.87 a7.5 7.5 0 1 0 15 0 a7.5 7.5 0 1 0 -15 0zM533.78 400.87 a7.5 7.5 0 1 0 15 0 a7.5 7.5 0 1 0 -15 0zM468.83 438.37 a7.5 7.5 0 1 0 15 0 a7.5 7.5 0 1 0 -15 0zM468.83 513.37 a7.5 7.5 0 1 0 15 0 a7.5 7.5 0 1 0 -15 0zM403.87 550.87 a7.5 7.5 0 1 0 15 0 a7.5 7.5 0 1 0 -15 0zM533.78 550.87 a7.5 7.5 0 1 0 15 0 a7.5 7.5 0 1 0 -15 0zM533.78 625.87 a7.5 7.5 0 1 0 15 0 a7.5 7.5 0 1 0 -15 0zM468.83 663.37 a7.5 7.5 0 1 0 15 0 a7.5 7.5 0 1 0 -15 0zM403.87 625.87 a7.5 7.5 0 1 0 15 0 a7.5 7.5 0 1 0 -15 0zM533.78 -49.13 a7.5 7.5 0 1 0 15 0 a7.5 7.5 0 1 0 -15 0zM598.73 -11.63 a7.5 7.5 0 1 0 15 0 a7.5 7.5 0 1 0 -15 0zM598.73 63.37 a7.5 7.5 0 1 0 15 0 a7.5 7.5 0 1 0 -15 0zM663.69 100.87 a7.5 7.5 0 1 0 15 0 a7.5 7.5 0 1 0 -15 0zM663.69 175.87 a7.5 7.5 0 1 0 15 0 a7.5 7.5 0 1 0 -15 0zM598.73 213.37 a7.5 7.5 0 1 0 15 0 a7.5 7.5 0 1 0 -15 0zM598.73 513.37 a7.5 7.5 0 1 0 15 0 a7.5 7.5 0 1 0 -15 0zM663.69 550.87 a7.5 7.5 0 1 0 15 0 a7.5 7.5 0 1 0 -15 0zM663.69 625.87 a7.5 7.5 0 1 0 15 0 a7.5 7.5 0 1 0 -15 0zM598.73 663.37 a7.5 7.5 0 1 0 15 0 a7.5 7.5 0 1 0 -15 0zM663.69 -49.13 a7.5 7.5 0 1 0 15 0 a7.5 7.5 0 1 0 -15 0zM728.64 -11.63 a7.5 7.5 0 1 0 15 0 a7.5 7.5 0 1 0 -15 0zM728.64 63.37 a7.5 7.5 0 1 0 15 0 a7.5 7.5 0 1 0 -15 0zM793.6 100.87 a7.5 7.5 0 1 0 15 0 a7.5 7.5 0 1 0 -15 0zM793.6 175.87 a7.5 7.5 0 1 0 15 0 a7.5 7.5 0 1 0 -15 0zM728.64 213.37 a7.5 7.5 0 1 0 15 0 a7.5 7.5 0 1 0 -15 0zM728.64 288.37 a7.5 7.5 0 1 0 15 0 a7.5 7.5 0 1 0 -15 0zM663.69 325.87 a7.5 7.5 0 1 0 15 0 a7.5 7.5 0 1 0 -15 0zM598.73 288.37 a7.5 7.5 0 1 0 15 0 a7.5 7.5 0 1 0 -15 0zM793.6 325.87 a7.5 7.5 0 1 0 15 0 a7.5 7.5 0 1 0 -15 0zM793.6 400.87 a7.5 7.5 0 1 0 15 0 a7.5 7.5 0 1 0 -15 0zM728.64 438.37 a7.5 7.5 0 1 0 15 0 a7.5 7.5 0 1 0 -15 0zM663.69 400.87 a7.5 7.5 0 1 0 15 0 a7.5 7.5 0 1 0 -15 0zM858.55 63.37 a7.5 7.5 0 1 0 15 0 a7.5 7.5 0 1 0 -15 0zM923.5 100.87 a7.5 7.5 0 1 0 15 0 a7.5 7.5 0 1 0 -15 0zM923.5 175.87 a7.5 7.5 0 1 0 15 0 a7.5 7.5 0 1 0 -15 0zM858.55 213.37 a7.5 7.5 0 1 0 15 0 a7.5 7.5 0 1 0 -15 0zM793.59 175.87 a7.5 7.5 0 1 0 15 0 a7.5 7.5 0 1 0 -15 0zM793.59 100.87 a7.5 7.5 0 1 0 15 0 a7.5 7.5 0 1 0 -15 0zM858.55 288.37 a7.5 7.5 0 1 0 15 0 a7.5 7.5 0 1 0 -15 0zM923.5 325.87 a7.5 7.5 0 1 0 15 0 a7.5 7.5 0 1 0 -15 0zM923.5 400.87 a7.5 7.5 0 1 0 15 0 a7.5 7.5 0 1 0 -15 0zM858.55 438.37 a7.5 7.5 0 1 0 15 0 a7.5 7.5 0 1 0 -15 0zM793.59 400.87 a7.5 7.5 0 1 0 15 0 a7.5 7.5 0 1 0 -15 0zM793.59 325.87 a7.5 7.5 0 1 0 15 0 a7.5 7.5 0 1 0 -15 0zM923.5 -49.13 a7.5 7.5 0 1 0 15 0 a7.5 7.5 0 1 0 -15 0zM988.46 -11.63 a7.5 7.5 0 1 0 15 0 a7.5 7.5 0 1 0 -15 0zM988.46 63.37 a7.5 7.5 0 1 0 15 0 a7.5 7.5 0 1 0 -15 0zM858.55 -11.63 a7.5 7.5 0 1 0 15 0 a7.5 7.5 0 1 0 -15 0zM1053.41 100.87 a7.5 7.5 0 1 0 15 0 a7.5 7.5 0 1 0 -15 0zM1053.41 175.87 a7.5 7.5 0 1 0 15 0 a7.5 7.5 0 1 0 -15 0zM988.46 213.37 a7.5 7.5 0 1 0 15 0 a7.5 7.5 0 1 0 -15 0zM1053.41 -49.13 a7.5 7.5 0 1 0 15 0 a7.5 7.5 0 1 0 -15 0zM1118.36 -11.63 a7.5 7.5 0 1 0 15 0 a7.5 7.5 0 1 0 -15 0zM1118.36 63.37 a7.5 7.5 0 1 0 15 0 a7.5 7.5 0 1 0 -15 0zM1183.32 100.87 a7.5 7.5 0 1 0 15 0 a7.5 7.5 0 1 0 -15 0zM1183.32 175.87 a7.5 7.5 0 1 0 15 0 a7.5 7.5 0 1 0 -15 0zM1118.36 213.37 a7.5 7.5 0 1 0 15 0 a7.5 7.5 0 1 0 -15 0zM1118.36 288.37 a7.5 7.5 0 1 0 15 0 a7.5 7.5 0 1 0 -15 0zM1053.41 325.87 a7.5 7.5 0 1 0 15 0 a7.5 7.5 0 1 0 -15 0zM988.46 288.37 a7.5 7.5 0 1 0 15 0 a7.5 7.5 0 1 0 -15 0zM1183.32 325.87 a7.5 7.5 0 1 0 15 0 a7.5 7.5 0 1 0 -15 0zM1183.32 400.87 a7.5 7.5 0 1 0 15 0 a7.5 7.5 0 1 0 -15 0zM1118.36 438.37 a7.5 7.5 0 1 0 15 0 a7.5 7.5 0 1 0 -15 0zM1053.41 400.87 a7.5 7.5 0 1 0 15 0 a7.5 7.5 0 1 0 -15 0zM1118.36 513.37 a7.5 7.5 0 1 0 15 0 a7.5 7.5 0 1 0 -15 0zM1053.41 550.87 a7.5 7.5 0 1 0 15 0 a7.5 7.5 0 1 0 -15 0zM988.46 513.37 a7.5 7.5 0 1 0 15 0 a7.5 7.5 0 1 0 -15 0zM988.46 438.37 a7.5 7.5 0 1 0 15 0 a7.5 7.5 0 1 0 -15 0zM1248.27 213.37 a7.5 7.5 0 1 0 15 0 a7.5 7.5 0 1 0 -15 0zM1248.27 288.37 a7.5 7.5 0 1 0 15 0 a7.5 7.5 0 1 0 -15 0zM1313.23 400.87 a7.5 7.5 0 1 0 15 0 a7.5 7.5 0 1 0 -15 0zM1378.18 438.37 a7.5 7.5 0 1 0 15 0 a7.5 7.5 0 1 0 -15 0zM1378.18 513.37 a7.5 7.5 0 1 0 15 0 a7.5 7.5 0 1 0 -15 0zM1313.23 550.87 a7.5 7.5 0 1 0 15 0 a7.5 7.5 0 1 0 -15 0zM1248.27 513.37 a7.5 7.5 0 1 0 15 0 a7.5 7.5 0 1 0 -15 0zM1248.27 438.37 a7.5 7.5 0 1 0 15 0 a7.5 7.5 0 1 0 -15 0zM1508.09 63.37 a7.5 7.5 0 1 0 15 0 a7.5 7.5 0 1 0 -15 0zM1573.04 100.87 a7.5 7.5 0 1 0 15 0 a7.5 7.5 0 1 0 -15 0zM1573.04 175.87 a7.5 7.5 0 1 0 15 0 a7.5 7.5 0 1 0 -15 0zM1508.09 213.37 a7.5 7.5 0 1 0 15 0 a7.5 7.5 0 1 0 -15 0zM1443.13 175.87 a7.5 7.5 0 1 0 15 0 a7.5 7.5 0 1 0 -15 0zM1443.13 100.87 a7.5 7.5 0 1 0 15 0 a7.5 7.5 0 1 0 -15 0zM1508.09 288.37 a7.5 7.5 0 1 0 15 0 a7.5 7.5 0 1 0 -15 0zM1443.13 325.87 a7.5 7.5 0 1 0 15 0 a7.5 7.5 0 1 0 -15 0zM1378.18 288.37 a7.5 7.5 0 1 0 15 0 a7.5 7.5 0 1 0 -15 0zM1378.18 213.37 a7.5 7.5 0 1 0 15 0 a7.5 7.5 0 1 0 -15 0z" fill="#03305d"></path><path d="M48.02 126.39L91.32 151.39L91.32 201.39L48.02 226.39L4.72 201.39L4.72 151.39zM91.32 351.39L134.63 376.39L134.63 426.39L91.32 451.39L48.02 426.39L48.02 376.39zM177.93 201.39L221.23 226.39L221.23 276.39L177.93 301.39L134.63 276.39L134.63 226.39zM264.53 51.39L307.83 76.39L307.83 126.39L264.53 151.39L221.23 126.39L221.23 76.39zM221.23 276.39L264.53 301.39L264.53 351.39L221.23 376.39L177.93 351.39L177.93 301.39zM264.53 351.39L307.83 376.39L307.83 426.39L264.53 451.39L221.23 426.39L221.23 376.39zM221.23 426.39L264.53 451.39L264.53 501.39L221.23 526.39L177.93 501.39L177.93 451.39zM307.83 -23.61L351.14 1.39L351.14 51.39L307.83 76.39L264.53 51.39L264.53 1.39zM307.83 126.39L351.14 151.39L351.14 201.39L307.83 226.39L264.53 201.39L264.53 151.39zM351.14 351.39L394.44 376.39L394.44 426.39L351.14 451.39L307.83 426.39L307.83 376.39zM394.44 -23.61L437.74 1.39L437.74 51.39L394.44 76.39L351.14 51.39L351.14 1.39zM394.44 126.39L437.74 151.39L437.74 201.39L394.44 226.39L351.14 201.39L351.14 151.39zM481.05 126.39L524.35 151.39L524.35 201.39L481.05 226.39L437.74 201.39L437.74 151.39zM567.65 -23.61L610.95 1.39L610.95 51.39L567.65 76.39L524.35 51.39L524.35 1.39zM610.95 201.39L654.25 226.39L654.25 276.39L610.95 301.39L567.65 276.39L567.65 226.39zM610.95 351.39L654.25 376.39L654.25 426.39L610.95 451.39L567.65 426.39L567.65 376.39zM610.95 501.39L654.25 526.39L654.25 576.39L610.95 601.39L567.65 576.39L567.65 526.39zM654.25 -23.61L697.56 1.39L697.56 51.39L654.25 76.39L610.95 51.39L610.95 1.39zM697.56 201.39L740.86 226.39L740.86 276.39L697.56 301.39L654.25 276.39L654.25 226.39zM654.25 426.39L697.56 451.39L697.56 501.39L654.25 526.39L610.95 501.39L610.95 451.39zM740.86 -23.61L784.16 1.39L784.16 51.39L740.86 76.39L697.56 51.39L697.56 1.39zM784.16 51.39L827.47 76.39L827.47 126.39L784.16 151.39L740.86 126.39L740.86 76.39zM827.47 -23.61L870.77 1.39L870.77 51.39L827.47 76.39L784.16 51.39L784.16 1.39zM957.37 501.39L1000.68 526.39L1000.68 576.39L957.37 601.39L914.07 576.39L914.07 526.39zM1043.98 201.39L1087.28 226.39L1087.28 276.39L1043.98 301.39L1000.68 276.39L1000.68 226.39zM1130.58 201.39L1173.88 226.39L1173.88 276.39L1130.58 301.39L1087.28 276.39L1087.28 226.39zM1130.58 351.39L1173.88 376.39L1173.88 426.39L1130.58 451.39L1087.28 426.39L1087.28 376.39zM1087.28 426.39L1130.58 451.39L1130.58 501.39L1087.28 526.39L1043.98 501.39L1043.98 451.39zM1173.88 -23.61L1217.19 1.39L1217.19 51.39L1173.88 76.39L1130.58 51.39L1130.58 1.39zM1173.88 126.39L1217.19 151.39L1217.19 201.39L1173.88 226.39L1130.58 201.39L1130.58 151.39zM1217.19 201.39L1260.49 226.39L1260.49 276.39L1217.19 301.39L1173.88 276.39L1173.88 226.39zM1173.88 276.39L1217.19 301.39L1217.19 351.39L1173.88 376.39L1130.58 351.39L1130.58 301.39zM1303.79 351.39L1347.1 376.39L1347.1 426.39L1303.79 451.39L1260.49 426.39L1260.49 376.39zM1347.1 126.39L1390.4 151.39L1390.4 201.39L1347.1 226.39L1303.79 201.39L1303.79 151.39zM1477 51.39L1520.31 76.39L1520.31 126.39L1477 151.39L1433.7 126.39L1433.7 76.39zM1433.7 126.39L1477 151.39L1477 201.39L1433.7 226.39L1390.4 201.39L1390.4 151.39z" stroke="rgba(6, 80, 156, 0.93)" stroke-width="2"></path></g><defs><mask id="SvgjsMask1000"><rect width="1440" height="560" fill="#ffffff"></rect></mask></defs></svg>