<svg xmlns="http://www.w3.org/2000/svg" version="1.1" xmlns:xlink="http://www.w3.org/1999/xlink" xmlns:svgjs="http://svgjs.com/svgjs" width="1440" height="540" preserveAspectRatio="none" viewBox="0 0 1440 540"><g mask="url(&quot;#SvgjsMask1352&quot;)" fill="none"><rect width="1440" height="540" x="0" y="0" fill="#0e2a47"></rect><path d="M65.6 199.43L130.55 236.93L130.55 311.93L65.6 349.43L0.65 311.93L0.65 236.93zM130.55 311.93L195.51 349.43L195.51 424.43L130.55 461.93L65.6 424.43L65.6 349.43zM325.41 -25.57L390.37 11.93L390.37 86.93L325.41 124.43L260.46 86.93L260.46 11.93zM390.37 311.93L455.32 349.43L455.32 424.43L390.37 461.93L325.41 424.43L325.41 349.43zM520.28 86.93L585.23 124.43L585.23 199.43L520.28 236.93L455.32 199.43L455.32 124.43zM455.32 199.43L520.28 236.93L520.28 311.93L455.32 349.43L390.37 311.93L390.37 236.93zM650.18 86.93L715.14 124.43L715.14 199.43L650.18 236.93L585.23 199.43L585.23 124.43zM585.23 424.43L650.18 461.93L650.18 536.93L585.23 574.43L520.28 536.93L520.28 461.93zM780.09 536.93L845.05 574.43L845.05 649.43L780.09 686.93L715.14 649.43L715.14 574.43zM910 86.93L974.95 124.43L974.95 199.43L910 236.93L845.04 199.43L845.04 124.43zM845.04 199.43L910 236.93L910 311.93L845.04 349.43L780.09 311.93L780.09 236.93zM845.04 424.43L910 461.93L910 536.93L845.04 574.43L780.09 536.93L780.09 461.93zM974.95 -25.57L1039.91 11.93L1039.91 86.93L974.95 124.43L910 86.93L910 11.93zM1039.91 86.93L1104.86 124.43L1104.86 199.43L1039.91 236.93L974.95 199.43L974.95 124.43zM974.95 424.43L1039.91 461.93L1039.91 536.93L974.95 574.43L910 536.93L910 461.93zM1104.86 -25.57L1169.81 11.93L1169.81 86.93L1104.86 124.43L1039.91 86.93L1039.91 11.93zM1299.72 86.93L1364.67 124.43L1364.67 199.43L1299.72 236.93L1234.77 199.43L1234.77 124.43zM1234.77 424.43L1299.72 461.93L1299.72 536.93L1234.77 574.43L1169.81 536.93L1169.81 461.93zM1364.67 199.43L1429.63 236.93L1429.63 311.93L1364.67 349.43L1299.72 311.93L1299.72 236.93zM1429.63 311.93L1494.58 349.43L1494.58 424.43L1429.63 461.93L1364.67 424.43L1364.67 349.43zM1559.54 536.93L1624.49 574.43L1624.49 649.43L1559.54 686.93L1494.58 649.43L1494.58 574.43z" stroke="#03305d" stroke-width="2"></path><path d="M58.1 199.43 a7.5 7.5 0 1 0 15 0 a7.5 7.5 0 1 0 -15 0zM123.05 236.93 a7.5 7.5 0 1 0 15 0 a7.5 7.5 0 1 0 -15 0zM123.05 311.93 a7.5 7.5 0 1 0 15 0 a7.5 7.5 0 1 0 -15 0zM58.1 349.43 a7.5 7.5 0 1 0 15 0 a7.5 7.5 0 1 0 -15 0zM-6.85 311.93 a7.5 7.5 0 1 0 15 0 a7.5 7.5 0 1 0 -15 0zM-6.85 236.93 a7.5 7.5 0 1 0 15 0 a7.5 7.5 0 1 0 -15 0zM188.01 349.43 a7.5 7.5 0 1 0 15 0 a7.5 7.5 0 1 0 -15 0zM188.01 424.43 a7.5 7.5 0 1 0 15 0 a7.5 7.5 0 1 0 -15 0zM123.05 461.93 a7.5 7.5 0 1 0 15 0 a7.5 7.5 0 1 0 -15 0zM58.1 424.43 a7.5 7.5 0 1 0 15 0 a7.5 7.5 0 1 0 -15 0zM317.91 -25.57 a7.5 7.5 0 1 0 15 0 a7.5 7.5 0 1 0 -15 0zM382.87 11.93 a7.5 7.5 0 1 0 15 0 a7.5 7.5 0 1 0 -15 0zM382.87 86.93 a7.5 7.5 0 1 0 15 0 a7.5 7.5 0 1 0 -15 0zM317.91 124.43 a7.5 7.5 0 1 0 15 0 a7.5 7.5 0 1 0 -15 0zM252.96 86.93 a7.5 7.5 0 1 0 15 0 a7.5 7.5 0 1 0 -15 0zM252.96 11.93 a7.5 7.5 0 1 0 15 0 a7.5 7.5 0 1 0 -15 0zM382.87 311.93 a7.5 7.5 0 1 0 15 0 a7.5 7.5 0 1 0 -15 0zM447.82 349.43 a7.5 7.5 0 1 0 15 0 a7.5 7.5 0 1 0 -15 0zM447.82 424.43 a7.5 7.5 0 1 0 15 0 a7.5 7.5 0 1 0 -15 0zM382.87 461.93 a7.5 7.5 0 1 0 15 0 a7.5 7.5 0 1 0 -15 0zM317.91 424.43 a7.5 7.5 0 1 0 15 0 a7.5 7.5 0 1 0 -15 0zM317.91 349.43 a7.5 7.5 0 1 0 15 0 a7.5 7.5 0 1 0 -15 0zM512.78 86.93 a7.5 7.5 0 1 0 15 0 a7.5 7.5 0 1 0 -15 0zM577.73 124.43 a7.5 7.5 0 1 0 15 0 a7.5 7.5 0 1 0 -15 0zM577.73 199.43 a7.5 7.5 0 1 0 15 0 a7.5 7.5 0 1 0 -15 0zM512.78 236.93 a7.5 7.5 0 1 0 15 0 a7.5 7.5 0 1 0 -15 0zM447.82 199.43 a7.5 7.5 0 1 0 15 0 a7.5 7.5 0 1 0 -15 0zM447.82 124.43 a7.5 7.5 0 1 0 15 0 a7.5 7.5 0 1 0 -15 0zM512.78 311.93 a7.5 7.5 0 1 0 15 0 a7.5 7.5 0 1 0 -15 0zM382.87 236.93 a7.5 7.5 0 1 0 15 0 a7.5 7.5 0 1 0 -15 0zM642.68 86.93 a7.5 7.5 0 1 0 15 0 a7.5 7.5 0 1 0 -15 0zM707.64 124.43 a7.5 7.5 0 1 0 15 0 a7.5 7.5 0 1 0 -15 0zM707.64 199.43 a7.5 7.5 0 1 0 15 0 a7.5 7.5 0 1 0 -15 0zM642.68 236.93 a7.5 7.5 0 1 0 15 0 a7.5 7.5 0 1 0 -15 0zM577.73 424.43 a7.5 7.5 0 1 0 15 0 a7.5 7.5 0 1 0 -15 0zM642.68 461.93 a7.5 7.5 0 1 0 15 0 a7.5 7.5 0 1 0 -15 0zM642.68 536.93 a7.5 7.5 0 1 0 15 0 a7.5 7.5 0 1 0 -15 0zM577.73 574.43 a7.5 7.5 0 1 0 15 0 a7.5 7.5 0 1 0 -15 0zM512.78 536.93 a7.5 7.5 0 1 0 15 0 a7.5 7.5 0 1 0 -15 0zM512.78 461.93 a7.5 7.5 0 1 0 15 0 a7.5 7.5 0 1 0 -15 0zM772.59 536.93 a7.5 7.5 0 1 0 15 0 a7.5 7.5 0 1 0 -15 0zM837.55 574.43 a7.5 7.5 0 1 0 15 0 a7.5 7.5 0 1 0 -15 0zM837.55 649.43 a7.5 7.5 0 1 0 15 0 a7.5 7.5 0 1 0 -15 0zM772.59 686.93 a7.5 7.5 0 1 0 15 0 a7.5 7.5 0 1 0 -15 0zM707.64 649.43 a7.5 7.5 0 1 0 15 0 a7.5 7.5 0 1 0 -15 0zM707.64 574.43 a7.5 7.5 0 1 0 15 0 a7.5 7.5 0 1 0 -15 0zM902.5 86.93 a7.5 7.5 0 1 0 15 0 a7.5 7.5 0 1 0 -15 0zM967.45 124.43 a7.5 7.5 0 1 0 15 0 a7.5 7.5 0 1 0 -15 0zM967.45 199.43 a7.5 7.5 0 1 0 15 0 a7.5 7.5 0 1 0 -15 0zM902.5 236.93 a7.5 7.5 0 1 0 15 0 a7.5 7.5 0 1 0 -15 0zM837.54 199.43 a7.5 7.5 0 1 0 15 0 a7.5 7.5 0 1 0 -15 0zM837.54 124.43 a7.5 7.5 0 1 0 15 0 a7.5 7.5 0 1 0 -15 0zM902.5 311.93 a7.5 7.5 0 1 0 15 0 a7.5 7.5 0 1 0 -15 0zM837.54 349.43 a7.5 7.5 0 1 0 15 0 a7.5 7.5 0 1 0 -15 0zM772.59 311.93 a7.5 7.5 0 1 0 15 0 a7.5 7.5 0 1 0 -15 0zM772.59 236.93 a7.5 7.5 0 1 0 15 0 a7.5 7.5 0 1 0 -15 0zM837.54 424.43 a7.5 7.5 0 1 0 15 0 a7.5 7.5 0 1 0 -15 0zM902.5 461.93 a7.5 7.5 0 1 0 15 0 a7.5 7.5 0 1 0 -15 0zM902.5 536.93 a7.5 7.5 0 1 0 15 0 a7.5 7.5 0 1 0 -15 0zM837.54 574.43 a7.5 7.5 0 1 0 15 0 a7.5 7.5 0 1 0 -15 0zM772.59 461.93 a7.5 7.5 0 1 0 15 0 a7.5 7.5 0 1 0 -15 0zM967.45 -25.57 a7.5 7.5 0 1 0 15 0 a7.5 7.5 0 1 0 -15 0zM1032.41 11.93 a7.5 7.5 0 1 0 15 0 a7.5 7.5 0 1 0 -15 0zM1032.41 86.93 a7.5 7.5 0 1 0 15 0 a7.5 7.5 0 1 0 -15 0zM902.5 11.93 a7.5 7.5 0 1 0 15 0 a7.5 7.5 0 1 0 -15 0zM1097.36 124.43 a7.5 7.5 0 1 0 15 0 a7.5 7.5 0 1 0 -15 0zM1097.36 199.43 a7.5 7.5 0 1 0 15 0 a7.5 7.5 0 1 0 -15 0zM1032.41 236.93 a7.5 7.5 0 1 0 15 0 a7.5 7.5 0 1 0 -15 0zM967.45 424.43 a7.5 7.5 0 1 0 15 0 a7.5 7.5 0 1 0 -15 0zM1032.41 461.93 a7.5 7.5 0 1 0 15 0 a7.5 7.5 0 1 0 -15 0zM1032.41 536.93 a7.5 7.5 0 1 0 15 0 a7.5 7.5 0 1 0 -15 0zM967.45 574.43 a7.5 7.5 0 1 0 15 0 a7.5 7.5 0 1 0 -15 0zM1097.36 -25.57 a7.5 7.5 0 1 0 15 0 a7.5 7.5 0 1 0 -15 0zM1162.31 11.93 a7.5 7.5 0 1 0 15 0 a7.5 7.5 0 1 0 -15 0zM1162.31 86.93 a7.5 7.5 0 1 0 15 0 a7.5 7.5 0 1 0 -15 0zM1292.22 86.93 a7.5 7.5 0 1 0 15 0 a7.5 7.5 0 1 0 -15 0zM1357.17 124.43 a7.5 7.5 0 1 0 15 0 a7.5 7.5 0 1 0 -15 0zM1357.17 199.43 a7.5 7.5 0 1 0 15 0 a7.5 7.5 0 1 0 -15 0zM1292.22 236.93 a7.5 7.5 0 1 0 15 0 a7.5 7.5 0 1 0 -15 0zM1227.27 199.43 a7.5 7.5 0 1 0 15 0 a7.5 7.5 0 1 0 -15 0zM1227.27 124.43 a7.5 7.5 0 1 0 15 0 a7.5 7.5 0 1 0 -15 0zM1227.27 424.43 a7.5 7.5 0 1 0 15 0 a7.5 7.5 0 1 0 -15 0zM1292.22 461.93 a7.5 7.5 0 1 0 15 0 a7.5 7.5 0 1 0 -15 0zM1292.22 536.93 a7.5 7.5 0 1 0 15 0 a7.5 7.5 0 1 0 -15 0zM1227.27 574.43 a7.5 7.5 0 1 0 15 0 a7.5 7.5 0 1 0 -15 0zM1162.31 536.93 a7.5 7.5 0 1 0 15 0 a7.5 7.5 0 1 0 -15 0zM1162.31 461.93 a7.5 7.5 0 1 0 15 0 a7.5 7.5 0 1 0 -15 0zM1422.13 236.93 a7.5 7.5 0 1 0 15 0 a7.5 7.5 0 1 0 -15 0zM1422.13 311.93 a7.5 7.5 0 1 0 15 0 a7.5 7.5 0 1 0 -15 0zM1357.17 349.43 a7.5 7.5 0 1 0 15 0 a7.5 7.5 0 1 0 -15 0zM1292.22 311.93 a7.5 7.5 0 1 0 15 0 a7.5 7.5 0 1 0 -15 0zM1487.08 349.43 a7.5 7.5 0 1 0 15 0 a7.5 7.5 0 1 0 -15 0zM1487.08 424.43 a7.5 7.5 0 1 0 15 0 a7.5 7.5 0 1 0 -15 0zM1422.13 461.93 a7.5 7.5 0 1 0 15 0 a7.5 7.5 0 1 0 -15 0zM1357.17 424.43 a7.5 7.5 0 1 0 15 0 a7.5 7.5 0 1 0 -15 0zM1552.04 536.93 a7.5 7.5 0 1 0 15 0 a7.5 7.5 0 1 0 -15 0zM1616.99 574.43 a7.5 7.5 0 1 0 15 0 a7.5 7.5 0 1 0 -15 0zM1616.99 649.43 a7.5 7.5 0 1 0 15 0 a7.5 7.5 0 1 0 -15 0zM1552.04 686.93 a7.5 7.5 0 1 0 15 0 a7.5 7.5 0 1 0 -15 0zM1487.08 649.43 a7.5 7.5 0 1 0 15 0 a7.5 7.5 0 1 0 -15 0zM1487.08 574.43 a7.5 7.5 0 1 0 15 0 a7.5 7.5 0 1 0 -15 0z" fill="#03305d"></path><path d="M35.26 149.3L78.56 174.3L78.56 224.3L35.26 249.3L-8.04 224.3L-8.04 174.3zM78.56 374.3L121.87 399.3L121.87 449.3L78.56 474.3L35.26 449.3L35.26 399.3zM35.26 449.3L78.56 474.3L78.56 524.3L35.26 549.3L-8.04 524.3L-8.04 474.3zM165.17 74.3L208.47 99.3L208.47 149.3L165.17 174.3L121.87 149.3L121.87 99.3zM121.87 149.3L165.17 174.3L165.17 224.3L121.87 249.3L78.56 224.3L78.56 174.3zM251.77 74.3L295.07 99.3L295.07 149.3L251.77 174.3L208.47 149.3L208.47 99.3zM251.77 224.3L295.07 249.3L295.07 299.3L251.77 324.3L208.47 299.3L208.47 249.3zM208.47 299.3L251.77 324.3L251.77 374.3L208.47 399.3L165.17 374.3L165.17 324.3zM251.77 524.3L295.07 549.3L295.07 599.3L251.77 624.3L208.47 599.3L208.47 549.3zM295.07 -0.7L338.38 24.3L338.38 74.3L295.07 99.3L251.77 74.3L251.77 24.3zM295.07 149.3L338.38 174.3L338.38 224.3L295.07 249.3L251.77 224.3L251.77 174.3zM338.38 224.3L381.68 249.3L381.68 299.3L338.38 324.3L295.07 299.3L295.07 249.3zM424.98 74.3L468.29 99.3L468.29 149.3L424.98 174.3L381.68 149.3L381.68 99.3zM381.68 149.3L424.98 174.3L424.98 224.3L381.68 249.3L338.38 224.3L338.38 174.3zM424.98 224.3L468.29 249.3L468.29 299.3L424.98 324.3L381.68 299.3L381.68 249.3zM468.29 149.3L511.59 174.3L511.59 224.3L468.29 249.3L424.98 224.3L424.98 174.3zM468.29 299.3L511.59 324.3L511.59 374.3L468.29 399.3L424.98 374.3L424.98 324.3zM511.59 374.3L554.89 399.3L554.89 449.3L511.59 474.3L468.29 449.3L468.29 399.3zM468.29 449.3L511.59 474.3L511.59 524.3L468.29 549.3L424.98 524.3L424.98 474.3zM511.59 524.3L554.89 549.3L554.89 599.3L511.59 624.3L468.29 599.3L468.29 549.3zM598.19 74.3L641.5 99.3L641.5 149.3L598.19 174.3L554.89 149.3L554.89 99.3zM554.89 149.3L598.19 174.3L598.19 224.3L554.89 249.3L511.59 224.3L511.59 174.3zM598.19 224.3L641.5 249.3L641.5 299.3L598.19 324.3L554.89 299.3L554.89 249.3zM554.89 299.3L598.19 324.3L598.19 374.3L554.89 399.3L511.59 374.3L511.59 324.3zM598.19 374.3L641.5 399.3L641.5 449.3L598.19 474.3L554.89 449.3L554.89 399.3zM554.89 449.3L598.19 474.3L598.19 524.3L554.89 549.3L511.59 524.3L511.59 474.3zM684.8 74.3L728.1 99.3L728.1 149.3L684.8 174.3L641.5 149.3L641.5 99.3zM641.5 149.3L684.8 174.3L684.8 224.3L641.5 249.3L598.19 224.3L598.19 174.3zM684.8 224.3L728.1 249.3L728.1 299.3L684.8 324.3L641.5 299.3L641.5 249.3zM641.5 299.3L684.8 324.3L684.8 374.3L641.5 399.3L598.19 374.3L598.19 324.3zM684.8 374.3L728.1 399.3L728.1 449.3L684.8 474.3L641.5 449.3L641.5 399.3zM641.5 449.3L684.8 474.3L684.8 524.3L641.5 549.3L598.19 524.3L598.19 474.3zM728.1 149.3L771.4 174.3L771.4 224.3L728.1 249.3L684.8 224.3L684.8 174.3zM771.4 374.3L814.71 399.3L814.71 449.3L771.4 474.3L728.1 449.3L728.1 399.3zM728.1 449.3L771.4 474.3L771.4 524.3L728.1 549.3L684.8 524.3L684.8 474.3zM814.71 149.3L858.01 174.3L858.01 224.3L814.71 249.3L771.4 224.3L771.4 174.3zM858.01 224.3L901.31 249.3L901.31 299.3L858.01 324.3L814.71 299.3L814.71 249.3zM814.71 299.3L858.01 324.3L858.01 374.3L814.71 399.3L771.4 374.3L771.4 324.3zM858.01 374.3L901.31 399.3L901.31 449.3L858.01 474.3L814.71 449.3L814.71 399.3zM858.01 524.3L901.31 549.3L901.31 599.3L858.01 624.3L814.71 599.3L814.71 549.3zM901.31 299.3L944.61 324.3L944.61 374.3L901.31 399.3L858.01 374.3L858.01 324.3zM944.61 374.3L987.92 399.3L987.92 449.3L944.61 474.3L901.31 449.3L901.31 399.3zM944.61 524.3L987.92 549.3L987.92 599.3L944.61 624.3L901.31 599.3L901.31 549.3zM987.92 -0.7L1031.22 24.3L1031.22 74.3L987.92 99.3L944.61 74.3L944.61 24.3zM987.92 149.3L1031.22 174.3L1031.22 224.3L987.92 249.3L944.61 224.3L944.61 174.3zM1031.22 224.3L1074.52 249.3L1074.52 299.3L1031.22 324.3L987.92 299.3L987.92 249.3zM987.92 299.3L1031.22 324.3L1031.22 374.3L987.92 399.3L944.61 374.3L944.61 324.3zM1074.52 -0.7L1117.82 24.3L1117.82 74.3L1074.52 99.3L1031.22 74.3L1031.22 24.3zM1161.13 -0.7L1204.43 24.3L1204.43 74.3L1161.13 99.3L1117.82 74.3L1117.82 24.3zM1161.13 149.3L1204.43 174.3L1204.43 224.3L1161.13 249.3L1117.82 224.3L1117.82 174.3zM1204.43 224.3L1247.73 249.3L1247.73 299.3L1204.43 324.3L1161.13 299.3L1161.13 249.3zM1247.73 -0.7L1291.03 24.3L1291.03 74.3L1247.73 99.3L1204.43 74.3L1204.43 24.3zM1291.03 224.3L1334.34 249.3L1334.34 299.3L1291.03 324.3L1247.73 299.3L1247.73 249.3zM1291.03 374.3L1334.34 399.3L1334.34 449.3L1291.03 474.3L1247.73 449.3L1247.73 399.3zM1291.03 524.3L1334.34 549.3L1334.34 599.3L1291.03 624.3L1247.73 599.3L1247.73 549.3zM1377.64 74.3L1420.94 99.3L1420.94 149.3L1377.64 174.3L1334.34 149.3L1334.34 99.3zM1334.34 449.3L1377.64 474.3L1377.64 524.3L1334.34 549.3L1291.03 524.3L1291.03 474.3zM1420.94 -0.7L1464.24 24.3L1464.24 74.3L1420.94 99.3L1377.64 74.3L1377.64 24.3zM1464.24 74.3L1507.55 99.3L1507.55 149.3L1464.24 174.3L1420.94 149.3L1420.94 99.3zM1420.94 149.3L1464.24 174.3L1464.24 224.3L1420.94 249.3L1377.64 224.3L1377.64 174.3zM1464.24 224.3L1507.55 249.3L1507.55 299.3L1464.24 324.3L1420.94 299.3L1420.94 249.3zM1464.24 374.3L1507.55 399.3L1507.55 449.3L1464.24 474.3L1420.94 449.3L1420.94 399.3z" stroke="rgba(6, 80, 156, 0.93)" stroke-width="2"></path></g><defs><mask id="SvgjsMask1352"><rect width="1440" height="540" fill="#ffffff"></rect></mask></defs></svg>